<svg width="16" height="16" viewBox="0 0 16 16" fill="none" xmlns="http://www.w3.org/2000/svg">
<g clip-path="url(#clip0_4950_175810)">
<path d="M11.1915 9.40749C10.8942 9.24059 10.6513 8.96787 10.5077 8.63955C10.0717 7.64296 9.08739 6.99902 8.00008 6.99902C6.91276 6.99902 5.92848 7.64296 5.49245 8.63955C5.34883 8.96787 5.10595 9.24059 4.80864 9.40749C3.93754 9.89643 3.40161 10.8201 3.40998 11.8181C3.42254 13.3143 4.66517 14.5316 6.18001 14.5316H9.82014C11.335 14.5316 12.5776 13.3143 12.5902 11.8181C12.5985 10.8201 12.0626 9.89643 11.1915 9.40749Z" fill="#0B273D"/>
<path d="M10.4892 5.98666C11.5491 5.98666 12.4113 4.97328 12.4113 3.72769C12.4113 2.48209 11.549 1.46875 10.4892 1.46875C9.42941 1.46875 8.56716 2.48213 8.56716 3.72772C8.56716 4.97331 9.42938 5.98666 10.4892 5.98666Z" fill="#0B273D"/>
<path d="M14.0779 5.65137C13.0181 5.65137 12.1559 6.66474 12.1559 7.91033C12.1559 9.15593 13.0181 10.1693 14.0779 10.1693C15.1378 10.1693 16 9.15593 16 7.91033C16 6.66474 15.1378 5.65137 14.0779 5.65137Z" fill="#0B273D"/>
<path d="M5.5108 5.98666C6.57065 5.98666 7.43287 4.97328 7.43287 3.72769C7.43287 2.48209 6.57065 1.46875 5.5108 1.46875C4.45096 1.46875 3.58874 2.48213 3.58874 3.72772C3.58874 4.97331 4.45099 5.98666 5.5108 5.98666Z" fill="#0B273D"/>
<path d="M1.92206 5.65137C0.86225 5.65137 0 6.66474 0 7.91033C0 9.15593 0.86225 10.1693 1.92206 10.1693C2.98187 10.1693 3.84412 9.15593 3.84412 7.91033C3.84412 6.66474 2.98191 5.65137 1.92206 5.65137Z" fill="#0B273D"/>
</g>
<defs>
<clipPath id="clip0_4950_175810">
<rect width="16" height="16" fill="white"/>
</clipPath>
</defs>
</svg>
